<?xml version="1.0" standalone="no"?>
<!DOCTYPE svg PUBLIC "-//W3C//DTD SVG 20010904//EN"
 "http://www.w3.org/TR/2001/REC-SVG-20010904/DTD/svg10.dtd">
<svg version="1.0" xmlns="http://www.w3.org/2000/svg"
 width="67.000000pt" height="57.000000pt" viewBox="0 0 67.000000 57.000000"
 preserveAspectRatio="xMidYMid meet">
<metadata>
Created by potrace 1.16, written by Peter Selinger 2001-2019
</metadata>
<g transform="translate(0.000000,57.000000) scale(0.100000,-0.100000)"
fill="#000000" stroke="none">
<path d="M214 425 c-13 -18 -24 -39 -24 -48 0 -10 -8 -17 -20 -17 -10 0 -24
-9 -30 -20 -9 -17 -7 -26 14 -51 14 -17 26 -42 26 -56 0 -36 78 -113 114 -113
15 0 29 7 32 15 4 8 10 12 15 9 14 -8 59 24 59 41 0 8 7 15 15 15 8 0 20 8 26
19 11 16 15 17 38 5 38 -20 78 -18 91 5 16 30 2 50 -57 83 -52 30 -53 31 -31
42 26 13 35 50 18 70 -11 14 -89 25 -200 30 -59 2 -63 1 -86 -29z m261 -15
c25 -21 6 -40 -42 -40 -28 0 -43 -4 -41 -11 2 -6 37 -30 78 -53 41 -23 76 -50
78 -59 5 -27 -27 -21 -90 17 -60 36 -82 37 -48 1 18 -19 19 -24 6 -34 -11 -10
-19 -9 -35 1 -26 16 -39 3 -19 -19 9 -10 13 -24 11 -30 -6 -15 -39 -17 -48 -3
-11 18 -26 10 -23 -12 2 -11 -2 -23 -8 -25 -18 -6 -94 84 -94 110 0 14 -9 36
-21 51 -21 26 -20 28 16 30 15 1 21 9 23 31 7 56 20 62 137 59 62 -1 112 -7
120 -14z"/>
</g>
</svg>
